<svg width="192" height="192" viewBox="0 0 192 192" fill="none" xmlns="http://www.w3.org/2000/svg">
<path d="M64.0172 82.3936H46.7004C45.1144 82.3936 43.8306 83.6773 43.8306 85.2634V102.569C43.8306 104.155 45.1144 105.439 46.7004 105.439H64.0172C65.6033 105.439 66.8871 104.155 66.8871 102.569V85.2634C66.8871 83.6793 65.6014 82.3936 64.0172 82.3936ZM61.1474 99.7008H49.5703V88.1352H61.1474V99.7008Z" fill="white"/>
<path d="M104.408 82.3936H87.0853C85.4992 82.3936 84.2154 83.6773 84.2154 85.2634V102.569C84.2154 104.155 85.4992 105.439 87.0853 105.439H104.408C105.994 105.439 107.278 104.155 107.278 102.569V85.2634C107.278 83.6793 105.994 82.3936 104.408 82.3936ZM101.538 99.7008H89.9551V88.1352H101.538V99.7008Z" fill="white"/>
<path d="M64.0172 121.83H46.7004C45.1144 121.83 43.8306 123.116 43.8306 124.7V142.017C43.8306 143.603 45.1144 144.887 46.7004 144.887H64.0172C65.6033 144.887 66.8871 143.603 66.8871 142.017V124.7C66.8871 123.116 65.6014 121.83 64.0172 121.83ZM61.1474 139.147H49.5703V127.57H61.1474V139.147Z" fill="white"/>
<path d="M104.408 121.83H87.0853C85.4992 121.83 84.2154 123.116 84.2154 124.7V142.017C84.2154 143.603 85.4992 144.887 87.0853 144.887H104.408C105.994 144.887 107.278 143.603 107.278 142.017V124.7C107.278 123.116 105.994 121.83 104.408 121.83ZM101.538 139.147H89.9551V127.57H101.538V139.147Z" fill="white"/>
<path d="M143.539 121.83H126.23C124.644 121.83 123.36 123.116 123.36 124.7V142.017C123.36 143.603 124.644 144.887 126.23 144.887H143.539C145.126 144.887 146.409 143.603 146.409 142.017V124.7C146.409 123.116 145.124 121.83 143.539 121.83ZM140.67 139.147H129.1V127.57H140.67V139.147Z" fill="white"/>
<path d="M164.616 30.8644H147.184V27.5373C147.184 21.6253 142.376 16.8154 136.468 16.8154C130.556 16.8154 125.746 21.6253 125.746 27.5373V30.8644H106.361V27.5373C106.361 21.6253 101.553 16.8154 95.6451 16.8154C89.7294 16.8154 84.9175 21.6253 84.9175 27.5373V30.8644H65.5383V27.5373C65.5383 21.6253 60.7322 16.8154 54.8222 16.8154C48.9064 16.8154 44.0946 21.6253 44.0946 27.5373V30.8644H26.7128C25.1267 30.8644 23.8429 32.1482 23.8429 33.7343V171.641C23.8429 173.225 25.1267 174.511 26.7128 174.511H164.62C166.206 174.511 167.489 173.225 167.489 171.641V33.7343C167.486 32.1482 166.202 30.8644 164.616 30.8644ZM131.484 27.5373C131.484 24.7879 133.719 22.5552 136.466 22.5552C139.21 22.5552 141.442 24.7898 141.442 27.5373V42.2233C141.442 44.9708 139.21 47.2054 136.466 47.2054C133.719 47.2054 131.484 44.9708 131.484 42.2233V27.5373ZM95.6432 22.5533C98.3868 22.5533 100.62 24.7879 100.62 27.5353V42.2214C100.62 44.9689 98.3868 47.2035 95.6432 47.2035C92.892 47.2035 90.6554 44.9689 90.6554 42.2214V34.048C90.6668 33.9428 90.6879 33.8414 90.6879 33.7324C90.6879 33.6233 90.6668 33.5219 90.6554 33.4167V27.5353C90.6554 24.7879 92.8939 22.5533 95.6432 22.5533ZM49.8324 27.5373C49.8324 24.7879 52.0709 22.5552 54.8203 22.5552C57.5639 22.5552 59.7966 24.7898 59.7966 27.5373V42.2233C59.7966 44.9708 57.5639 47.2054 54.8203 47.2054C52.069 47.2054 49.8324 44.9708 49.8324 42.2233V27.5373ZM161.746 168.769H29.5788V36.6022H44.0908V42.2214C44.0908 48.1334 48.9045 52.9433 54.8184 52.9433C60.7265 52.9433 65.5344 48.1334 65.5344 42.2214V36.6022H84.9137V42.2214C84.9137 48.1334 89.7274 52.9433 95.6413 52.9433C101.549 52.9433 106.357 48.1334 106.357 42.2214V36.6022H125.742V42.2214C125.742 48.1334 130.552 52.9433 136.464 52.9433C142.372 52.9433 147.18 48.1334 147.18 42.2214V36.6022H161.742V168.769H161.746Z" fill="white"/>
<path d="M146.713 74.0977L132.07 92.1473L125.961 86.3157C124.814 85.2213 122.999 85.2634 121.903 86.4095C120.808 87.5574 120.85 89.3731 121.996 90.4674L130.355 98.4476C130.891 98.9584 131.601 99.2416 132.337 99.2416C132.399 99.2416 132.458 99.2397 132.519 99.2359C133.319 99.1861 134.061 98.8015 134.566 98.1797L151.171 77.7157C152.17 76.4854 151.981 74.6774 150.75 73.6787C149.52 72.6781 147.712 72.8675 146.713 74.0977Z" fill="white"/>
</svg>
