<svg width="100" height="107" viewBox="0 0 100 107" fill="none" xmlns="http://www.w3.org/2000/svg">
<path d="M89.8591 21.6514H22.6274C21.807 21.6514 21.1429 22.3612 21.1429 23.2383V31.9484C21.1429 32.8254 21.807 33.5353 22.6274 33.5353C23.4479 33.5353 24.112 32.8254 24.112 31.9484V24.8252H88.3755V64.7954H82.2434C81.424 64.7954 80.7589 65.5064 80.7589 66.3824C80.7589 67.2583 81.424 67.9693 82.2434 67.9693H89.8601C90.6795 67.9693 91.3446 67.2583 91.3446 66.3824V23.2383C91.3436 22.3612 90.6795 21.6514 89.8591 21.6514Z" fill="white"/>
<path d="M78.44 34.9541H10.3067C9.48629 34.9541 8.8222 35.664 8.8222 36.541V84.0618C8.8222 84.9378 9.48629 85.6487 10.3067 85.6487H78.44C79.2595 85.6487 79.9246 84.9378 79.9246 84.0618V36.541C79.9246 35.664 79.2595 34.9541 78.44 34.9541ZM76.9555 38.1279V71.4257L65.8779 71.4236L56.0116 62.6712C55.4703 62.1909 54.6864 62.1856 54.1372 62.6511L44.5352 70.8407L29.9867 53.7104C29.7057 53.3793 29.3078 53.191 28.8902 53.1899H28.8872C28.4705 53.1899 28.0737 53.3772 27.7926 53.7051L11.7913 72.3937V38.1279H76.9555ZM11.7913 82.4749V77.0942L28.8832 57.1318L43.2733 74.0769C43.8018 74.6979 44.6876 74.7731 45.2982 74.2515L55.0447 65.9382L64.3933 74.2325C64.6605 74.4694 64.9951 74.5985 65.3415 74.5985L76.9545 74.6017V82.477H11.7913V82.4749Z" fill="white"/>
<path d="M64.5972 54.9873C67.8414 54.9873 70.4819 52.1658 70.4819 48.6968C70.4819 45.2288 67.8414 42.4062 64.5972 42.4062C61.353 42.4062 58.7125 45.2278 58.7125 48.6968C58.7125 52.1658 61.353 54.9873 64.5972 54.9873ZM64.5972 45.5801C66.2055 45.5801 67.5129 46.9776 67.5129 48.6968C67.5129 50.416 66.2055 51.8135 64.5972 51.8135C62.989 51.8135 61.6816 50.4149 61.6816 48.6968C61.6816 46.9787 62.989 45.5801 64.5972 45.5801Z" fill="white"/>
</svg>
