<svg width="192" height="192" viewBox="0 0 192 192" fill="none" xmlns="http://www.w3.org/2000/svg">
<path d="M95.6547 12.5107C62.6512 12.5107 35.7988 38.462 35.7988 70.3597C35.7988 81.0011 38.8753 91.4494 44.7011 100.618C44.7604 100.765 44.8331 100.907 44.9192 101.044L92.2568 177.454C92.7752 178.292 93.6859 178.802 94.6694 178.812C94.677 178.812 94.6866 178.812 94.6961 178.812C95.67 178.812 96.5788 178.318 97.1087 177.498L146.396 101.088C146.505 100.92 146.593 100.742 146.66 100.56C152.467 91.4188 155.532 80.9897 155.532 70.3597C155.53 38.462 128.668 12.5107 95.6547 12.5107ZM141.502 97.9678C141.391 98.1381 141.303 98.316 141.234 98.4997L94.744 170.572L50.0907 98.492C50.0199 98.3103 49.9319 98.1343 49.8229 97.9697C44.4026 89.6203 41.5385 80.0732 41.5385 70.3597C41.5385 41.6265 65.8138 18.2505 95.6547 18.2505C125.505 18.2505 149.79 41.6265 149.79 70.3597C149.79 80.0847 146.924 89.6318 141.502 97.9678Z" fill="white"/>
<path d="M119.798 43.308L55.4688 69.8754C54.4854 70.281 53.7948 71.3352 53.6953 72.3932C53.6206 73.1642 53.8617 73.9314 54.3649 74.5226C54.8662 75.1138 55.5836 75.4773 56.3566 75.529L93.0086 78.0411L100.595 113.981C100.753 114.733 101.276 115.376 101.924 115.789C102.384 116.082 102.946 116.229 103.503 116.229C103.732 116.229 103.96 116.205 104.18 116.155C105.227 115.916 106.053 115.112 106.321 114.073L123.674 46.6772C123.946 45.625 123.598 44.5095 122.777 43.7959C121.956 43.0823 120.804 42.8928 119.798 43.308ZM103.736 101.082L98.1744 74.735C97.9085 73.4799 96.8428 72.552 95.5628 72.464L68.697 70.6215L116.681 50.806L103.736 101.082Z" fill="white"/>
</svg>
