<svg width="192" height="192" viewBox="0 0 192 192" fill="none" xmlns="http://www.w3.org/2000/svg">
<path d="M125.376 23.3468C124.963 23.0876 124.491 22.9375 124.004 22.9106C123.517 22.8838 123.031 22.981 122.592 23.1932L62.9568 51.8396H12.48C11.7162 51.8396 10.9836 52.143 10.4435 52.6831C9.9034 53.2232 9.59998 53.9558 9.59998 54.7196V108.48C9.59998 108.48 9.59998 108.595 9.59998 108.652C9.60412 108.854 9.63643 109.055 9.69598 109.248C9.69598 109.248 9.69598 109.42 9.69598 109.516C9.73461 109.621 9.77949 109.724 9.83038 109.824V109.977L49.9968 177.177C50.2529 177.605 50.6158 177.96 51.05 178.205C51.4841 178.451 51.9747 178.58 52.4736 178.579H79.68C80.1897 178.58 80.6906 178.445 81.1314 178.189C81.5723 177.933 81.9373 177.565 82.1891 177.122C82.441 176.679 82.5707 176.176 82.565 175.667C82.5593 175.157 82.4185 174.658 82.1568 174.22L44.6016 111.36H63.1104L122.63 139.872C123.068 140.074 123.548 140.163 124.029 140.132C124.51 140.1 124.975 139.948 125.382 139.691C125.789 139.433 126.124 139.077 126.358 138.656C126.592 138.234 126.716 137.761 126.72 137.28V25.7852C126.72 25.2983 126.597 24.8192 126.362 24.3928C126.127 23.9664 125.788 23.6065 125.376 23.3468ZM15.36 57.5996H61.44V105.6H15.36V57.5996ZM74.6112 172.8H54.2784L17.5488 111.36H37.8816L74.6112 172.8ZM120.96 132.691L67.2 106.944V56.198L120.96 30.3548V132.691Z" fill="white"/>
<path d="M152.64 64.3204C153.248 64.3191 153.84 64.1241 154.33 63.7636L175.45 48.4036C176.068 47.9555 176.484 47.28 176.604 46.5257C176.725 45.7713 176.541 44.9999 176.093 44.3812C175.645 43.7625 174.969 43.3472 174.215 43.2266C173.46 43.106 172.689 43.2899 172.07 43.738L150.95 59.098C150.461 59.4563 150.098 59.9597 149.912 60.5365C149.726 61.1133 149.726 61.7342 149.913 62.3108C150.1 62.8873 150.465 63.39 150.954 63.7474C151.444 64.1048 152.034 64.2986 152.64 64.3012V64.3204Z" fill="white"/>
<path d="M181.44 78.7197H152.64C151.876 78.7197 151.144 79.0232 150.604 79.5633C150.063 80.1034 149.76 80.8359 149.76 81.5997C149.76 82.3636 150.063 83.0961 150.604 83.6362C151.144 84.1763 151.876 84.4797 152.64 84.4797H181.44C182.204 84.4797 182.936 84.1763 183.476 83.6362C184.017 83.0961 184.32 82.3636 184.32 81.5997C184.32 80.8359 184.017 80.1034 183.476 79.5633C182.936 79.0232 182.204 78.7197 181.44 78.7197Z" fill="white"/>
<path d="M175.45 114.797L154.33 99.4372C154.023 99.2154 153.676 99.056 153.308 98.9682C152.94 98.8805 152.559 98.8661 152.185 98.9258C151.812 98.9855 151.454 99.1182 151.131 99.3163C150.809 99.5144 150.529 99.7741 150.307 100.08C150.085 100.387 149.926 100.734 149.838 101.102C149.75 101.47 149.736 101.851 149.796 102.225C149.855 102.598 149.988 102.956 150.186 103.279C150.384 103.601 150.644 103.881 150.95 104.103L172.07 119.463C172.377 119.685 172.724 119.844 173.092 119.932C173.46 120.02 173.841 120.034 174.215 119.974C174.588 119.915 174.946 119.782 175.269 119.584C175.591 119.386 175.871 119.126 176.093 118.82C176.315 118.513 176.474 118.166 176.562 117.798C176.649 117.43 176.664 117.049 176.604 116.675C176.544 116.302 176.412 115.944 176.214 115.621C176.016 115.299 175.756 115.019 175.45 114.797Z" fill="white"/>
</svg>
