<svg width="192" height="192" viewBox="0 0 192 192" fill="none" xmlns="http://www.w3.org/2000/svg">
<path d="M46.8864 56.0447C46.697 55.4685 46.3305 54.9668 45.8392 54.6111C45.348 54.2555 44.7569 54.064 44.1504 54.064C43.5439 54.064 42.9528 54.2555 42.4615 54.6111C41.9702 54.9668 41.6038 55.4685 41.4144 56.0447L15.8208 132.845C15.701 133.204 15.6532 133.583 15.68 133.961C15.7069 134.339 15.8079 134.708 15.9773 135.046C16.1466 135.385 16.3811 135.687 16.6672 135.935C16.9533 136.184 17.2855 136.373 17.6448 136.493C18.0041 136.612 18.3835 136.66 18.7612 136.633C19.139 136.607 19.5078 136.506 19.8465 136.336C20.1853 136.167 20.4874 135.932 20.7355 135.646C20.9837 135.36 21.173 135.028 21.2928 134.669L28.9728 111.36H58.56C58.7832 111.386 59.0088 111.386 59.232 111.36L67.0272 134.745C67.2691 135.471 67.7893 136.071 68.4734 136.413C69.1576 136.755 69.9496 136.811 70.6752 136.569C71.4008 136.328 72.0006 135.807 72.3427 135.123C72.6848 134.439 72.7411 133.647 72.4992 132.921L46.8864 56.0447ZM30.9888 105.6L44.16 66.0671L57.3504 105.6H30.9888Z" fill="#317BD6"/>
<path d="M173.03 96.2113C170.221 93.3376 166.755 91.1896 162.931 89.9521C166.312 87.3761 168.792 83.7975 170.017 79.7276C171.242 75.6577 171.15 71.3047 169.753 67.2905C168.356 63.2763 165.726 59.8063 162.239 57.3763C158.752 54.9463 154.586 53.6807 150.336 53.7601H133.44C132.676 53.7601 131.944 54.0635 131.404 54.6037C130.863 55.1438 130.56 55.8763 130.56 56.6401V133.44C130.56 134.204 130.863 134.936 131.404 135.477C131.944 136.017 132.676 136.32 133.44 136.32H154.272C167.194 136.32 178.56 125.741 179.117 113.28C179.34 110.169 178.914 107.045 177.866 104.107C176.818 101.168 175.172 98.4798 173.03 96.2113ZM136.32 59.5201H150.336C153.083 59.4384 155.796 60.1455 158.154 61.5577C160.511 62.9699 162.415 65.0281 163.639 67.4886C164.863 69.9492 165.357 72.7089 165.061 75.4412C164.766 78.1735 163.693 80.7639 161.971 82.9057C159.723 85.7282 156.494 87.5998 152.928 88.1473C152.16 88.1473 151.379 88.1473 150.586 88.1473C150.182 88.147 149.783 88.232 149.414 88.3969L136.32 88.5505V59.5201ZM154.272 130.56H136.32V94.3105L150.72 94.0801C151.548 94.0792 152.375 94.0279 153.197 93.9265C159.955 94.3489 165.35 96.4993 168.883 100.186C170.47 101.894 171.686 103.911 172.456 106.112C173.226 108.312 173.533 110.648 173.357 112.973C172.934 122.515 164.198 130.56 154.272 130.56Z" fill="#317BD6"/>
<path d="M117.811 22.8097C117.44 22.7185 117.055 22.7019 116.678 22.761C116.301 22.82 115.939 22.9534 115.614 23.1535C115.289 23.3536 115.007 23.6164 114.784 23.9265C114.561 24.2367 114.402 24.588 114.317 24.9601L79.7568 165.773C79.6429 166.148 79.6067 166.542 79.6504 166.931C79.694 167.32 79.8166 167.696 80.0107 168.037C80.2047 168.377 80.4661 168.674 80.7789 168.91C81.0917 169.146 81.4493 169.315 81.8298 169.408C82.2103 169.501 82.6058 169.515 82.992 169.45C83.3782 169.385 83.7471 169.241 84.076 169.029C84.4049 168.816 84.6871 168.538 84.9051 168.213C85.1231 167.888 85.2724 167.521 85.344 167.136L119.904 26.3233C119.999 25.9551 120.02 25.5718 119.966 25.1954C119.912 24.8191 119.784 24.4572 119.59 24.1305C119.395 23.8039 119.138 23.519 118.832 23.2923C118.527 23.0656 118.18 22.9015 117.811 22.8097Z" fill="#317BD6"/>
</svg>
