<svg width="192" height="192" viewBox="0 0 192 192" fill="none" xmlns="http://www.w3.org/2000/svg">
<path d="M103.952 17.8352C103.067 17.2766 101.949 17.246 101.037 17.751C100.12 18.2561 99.5538 19.2185 99.5538 20.2631V36.1737H88.4876C87.841 36.1737 87.2115 36.3937 86.7045 36.7955L52.8285 63.6728C52.1417 64.2181 51.7418 65.0446 51.7418 65.9208V79.6713C51.7418 80.4347 52.046 81.1675 52.5894 81.707C53.1308 82.2447 53.8311 82.5125 54.6289 82.5412L90.0201 82.3193C86.2396 84.9022 81.6707 88.6234 76.4667 93.9729C66.3035 104.421 61.0038 119.733 58.3483 130.74C58.1416 131.593 58.3387 132.496 58.884 133.187C59.4273 133.877 60.2596 134.281 61.1397 134.281L122.111 134.268C122.995 134.268 123.829 133.86 124.374 133.164C124.92 132.467 125.111 131.557 124.895 130.7C122.945 122.936 122.008 116.475 122.18 112.017C122.3 108.89 124.273 106.426 127.001 103.013C132.01 96.7471 138.871 88.1662 138.798 69.0796C138.676 40.0614 105.37 18.7287 103.952 17.8352ZM122.517 99.4314C119.494 103.214 116.637 106.784 116.442 111.797C116.276 116.128 116.961 121.744 118.476 128.53L64.8399 128.543C67.5491 118.686 72.3417 106.443 80.5802 97.9754C94.3058 83.8652 102.804 82.2179 102.854 82.2083C104.341 81.9825 105.401 80.6471 105.284 79.1452C105.165 77.651 103.92 76.5011 102.424 76.5011C102.418 76.5011 102.412 76.5011 102.405 76.5011L57.4835 76.7843V67.308L89.4883 41.9153H102.424C104.008 41.9153 105.294 40.6316 105.294 39.0455V25.8211C114.085 32.5003 132.976 49.1685 133.059 69.1045C133.122 86.1649 127.242 93.5194 122.517 99.4314Z" fill="#317BD6"/>
<path d="M126.351 142.82H58.5166C56.9306 142.82 55.6468 144.106 55.6468 145.69C55.6468 145.778 55.664 145.86 55.6716 145.944C55.664 146.03 55.6468 146.113 55.6468 146.199L55.553 166.338C55.5492 167.099 55.8496 167.834 56.3891 168.375C56.9267 168.915 57.6595 169.219 58.4229 169.219H126.351C127.935 169.219 129.221 167.933 129.221 166.349V145.793C129.221 145.776 129.215 145.759 129.215 145.742C129.215 145.724 129.221 145.707 129.221 145.69C129.221 144.106 127.935 142.82 126.351 142.82ZM61.3061 163.483L61.375 148.56H123.481V163.483H61.3061Z" fill="#317BD6"/>
<path d="M31.5322 116.825C30.413 115.704 28.5954 115.704 27.4742 116.825L17.1848 127.112L6.89533 116.825C5.77416 115.704 3.95658 115.704 2.83733 116.825C1.71617 117.946 1.71617 119.762 2.83733 120.883L13.1268 131.168L2.83733 141.454C1.71617 142.575 1.71617 144.391 2.83733 145.512C3.396 146.073 4.1326 146.352 4.86729 146.352C5.60197 146.352 6.33666 146.073 6.89724 145.512L17.1867 135.224L27.4761 145.512C28.0367 146.073 28.7714 146.352 29.5061 146.352C30.2408 146.352 30.9754 146.073 31.536 145.512C32.6572 144.391 32.6572 142.575 31.536 141.454L21.2466 131.168L31.536 120.883C32.6534 119.762 32.6534 117.944 31.5322 116.825Z" fill="#317BD6"/>
<path d="M170.993 83.9016C160.883 83.9016 152.656 92.1267 152.656 102.236C152.656 112.348 160.883 120.575 170.993 120.575C181.102 120.575 189.329 112.348 189.329 102.236C189.329 92.1267 181.102 83.9016 170.993 83.9016ZM170.993 114.835C164.046 114.835 158.396 109.183 158.396 102.236C158.396 95.2912 164.046 89.6414 170.993 89.6414C177.94 89.6414 183.589 95.2912 183.589 102.236C183.589 109.183 177.94 114.835 170.993 114.835Z" fill="#317BD6"/>
</svg>
