<svg width="192" height="192" viewBox="0 0 192 192" fill="none" xmlns="http://www.w3.org/2000/svg">
<path d="M174.842 15.8147H69.1498C67.5637 15.8147 66.2799 17.0985 66.2799 18.6845V61.9924H18.7649C17.1789 61.9924 15.8951 63.2761 15.8951 64.8622V148.905C15.8951 150.489 17.1789 151.774 18.7649 151.774H43.8818L67.4833 176.734C68.0363 177.32 68.7958 177.634 69.5688 177.634C69.9246 177.634 70.2843 177.568 70.6287 177.431C71.7211 176.996 72.4367 175.942 72.4386 174.766L72.4501 151.774H129.592C131.177 151.774 132.462 150.489 132.462 148.905V105.597H174.84C176.424 105.597 177.71 104.311 177.71 102.727V18.6845C177.712 17.0985 176.426 15.8147 174.842 15.8147ZM126.723 146.035H69.5822C67.998 146.035 66.7123 147.318 66.7123 148.903L66.7027 167.555L47.2031 146.934C46.6617 146.36 45.9079 146.035 45.1177 146.035H21.6348V67.732H66.2799V102.727C66.2799 104.311 67.5637 105.597 69.1498 105.597H90.4995V126.742C90.4995 127.897 91.1921 128.94 92.2577 129.388C92.6174 129.539 92.9943 129.612 93.3674 129.612C94.1059 129.612 94.831 129.328 95.3782 128.789L119.007 105.597H126.723V146.035ZM171.972 99.857H117.834C117.082 99.857 116.359 100.152 115.823 100.68L96.2392 119.902V102.725C96.2392 101.141 94.9554 99.8551 93.3693 99.8551H72.0196V21.5544H171.972V99.857Z" fill="#317BD6"/>
<path d="M95.6786 49.9944C95.6901 49.9944 95.7035 49.9944 95.7149 49.9944C100.609 49.9753 104.573 45.9785 104.554 41.0864C104.535 36.2058 100.557 32.2473 95.6805 32.2473C95.669 32.2473 95.6556 32.2473 95.6441 32.2473C90.7501 32.2664 86.7859 36.2632 86.805 41.1553C86.8261 46.0379 90.8018 49.9944 95.6786 49.9944ZM95.6671 37.987C95.6709 37.987 95.6748 37.987 95.6805 37.987C97.4024 37.987 98.8067 39.3837 98.8144 41.1075C98.8182 41.9455 98.4949 42.7337 97.9037 43.3268C97.3144 43.9218 96.5281 44.249 95.692 44.2528C94.8482 44.2777 94.0657 43.9333 93.4726 43.344C92.8776 42.7548 92.5505 41.9684 92.5466 41.1323C92.539 39.4047 93.9395 37.9946 95.6671 37.987Z" fill="#317BD6"/>
<path d="M124.056 49.9944C124.067 49.9944 124.08 49.9944 124.092 49.9944C128.986 49.9753 132.95 45.9785 132.931 41.0864C132.912 36.2058 128.934 32.2473 124.057 32.2473C124.046 32.2473 124.033 32.2473 124.021 32.2473C119.127 32.2664 115.163 36.2632 115.182 41.1553C115.192 43.5258 116.123 45.7509 117.807 47.4192C119.481 49.0818 121.698 49.9944 124.056 49.9944ZM124.044 37.987C124.048 37.987 124.054 37.987 124.057 37.987C125.779 37.987 127.184 39.3837 127.191 41.1075C127.195 41.9455 126.872 42.7337 126.281 43.3268C125.691 43.9218 124.905 44.249 124.069 44.2528C124.065 44.2528 124.059 44.2528 124.056 44.2528C123.223 44.2528 122.441 43.9314 121.85 43.344C121.255 42.7528 120.927 41.9684 120.924 41.1304C120.914 39.4047 122.316 37.9946 124.044 37.987Z" fill="#317BD6"/>
</svg>
