<svg width="192" height="192" viewBox="0 0 192 192" fill="none" xmlns="http://www.w3.org/2000/svg">
<path d="M105.256 89.6941C105.264 89.4855 105.247 89.277 105.208 89.0704C105.197 89.0111 105.187 88.9517 105.172 88.8924C105.113 88.6571 105.034 88.4237 104.912 88.2018C104.787 87.9779 104.632 87.7847 104.462 87.6087C104.422 87.5666 104.382 87.5302 104.34 87.49C104.177 87.3408 104.003 87.2088 103.816 87.0997C103.793 87.0863 103.773 87.071 103.75 87.0576C103.538 86.9429 103.312 86.8625 103.077 86.8051C103.022 86.7917 102.968 86.7841 102.911 86.7745C102.708 86.7381 102.503 86.7209 102.294 86.7286C102.262 86.7305 102.231 86.719 102.201 86.7209L51.0506 90.224C49.8797 90.3044 48.8772 91.0888 48.5156 92.2042C48.1559 93.3196 48.5098 94.5441 49.411 95.2941L66.387 109.406L69.232 131.297C69.3832 132.46 70.2269 133.413 71.3633 133.708C71.6006 133.767 71.8417 133.798 72.0789 133.798C72.9781 133.798 73.8448 133.373 74.392 132.625L104.711 91.2821C104.73 91.2553 104.738 91.2247 104.755 91.1979C104.874 91.0257 104.969 90.842 105.046 90.6507C105.067 90.5971 105.09 90.5474 105.109 90.4919C105.183 90.2661 105.235 90.0327 105.254 89.7955C105.26 89.761 105.256 89.7285 105.256 89.6941ZM89.6328 93.3369L69.4195 104.462L58.5926 95.4625L89.6328 93.3369ZM74.0036 123.455L72.1879 109.492L92.4031 98.3648L74.0036 123.455Z" fill="#317BD6"/>
<path d="M181.305 98.8354C181.359 98.3016 181.267 97.7467 181.001 97.234L175.678 86.9542C174.947 85.5442 173.21 84.9951 171.812 85.7259C171.067 86.1143 170.216 86.1832 169.411 85.9287C168.609 85.6743 167.956 85.1233 167.572 84.3771C167.185 83.6291 167.113 82.7757 167.367 81.9741C167.622 81.1744 168.171 80.522 168.917 80.1374C169.975 79.5921 170.549 78.4806 170.461 77.3632C170.459 77.3498 170.455 77.3364 170.453 77.3231C170.438 77.1509 170.409 76.9787 170.361 76.8084C170.34 76.7319 170.3 76.6572 170.271 76.5807C170.233 76.4774 170.201 76.3722 170.149 76.2708C170.149 76.2708 170.149 76.2708 170.149 76.2689L164.83 65.9891C164.101 64.5829 162.372 64.0319 160.964 64.7589C159.422 65.5548 157.514 64.9521 156.714 63.4139C155.917 61.8699 156.521 59.9663 158.063 59.1684C159.469 58.4414 160.02 56.708 159.293 55.3018C159.253 55.2253 159.202 55.1621 159.156 55.0914C159.127 55.0244 159.11 54.9555 159.075 54.8905L153.755 44.6126C153.026 43.2026 151.292 42.6515 149.888 43.3824C149.144 43.7689 148.29 43.8416 147.487 43.5852C146.685 43.3307 146.031 42.7797 145.648 42.0355C144.85 40.4915 145.453 38.5879 146.993 37.79C148.401 37.0611 148.95 35.3296 148.223 33.9234C148.208 33.8928 148.183 33.8679 148.168 33.8373C148.149 33.7971 148.139 33.755 148.12 33.7149L142.792 23.437C142.493 22.8611 142.023 22.4383 141.481 22.1781C140.651 21.6615 139.581 21.5754 138.646 22.0557L11.8715 87.8573C7.6127 90.069 5.94628 95.3303 8.15223 99.5796L15.5105 113.835C16.0003 114.784 16.9799 115.385 18.0494 115.389C23.3299 115.412 28.2909 117.476 32.0178 121.203C38.8461 128.029 39.7607 138.73 34.1913 146.645C33.5752 147.519 33.4968 148.665 33.9885 149.614L41.2893 163.744C42.355 165.814 44.163 167.342 46.3843 168.048C47.2567 168.328 48.1483 168.463 49.0379 168.463C50.4135 168.463 51.7776 168.134 53.0327 167.482L179.784 101.694C180.863 101.133 181.429 99.9795 181.305 98.8354ZM50.3867 162.387C49.6865 162.749 48.881 162.819 48.1253 162.578C47.3696 162.337 46.7535 161.819 46.39 161.111L39.8544 148.464C45.9327 138.439 44.4615 125.529 36.0739 117.145C31.6888 112.758 25.9816 110.16 19.844 109.716L13.2491 96.9394C12.4972 95.493 13.0654 93.7041 14.5156 92.9503L138.891 28.3999L142.042 34.4763C139.497 37.1453 138.759 41.2185 140.546 44.6738C141.634 46.7822 143.482 48.3396 145.748 49.0589C146.635 49.3402 147.544 49.4799 148.449 49.4799C148.887 49.4799 149.322 49.4359 149.754 49.3708L153.11 55.8528C150.567 58.5218 149.829 62.5969 151.617 66.0541C153.198 69.1 156.311 70.8487 159.529 70.8487C159.961 70.8487 160.393 70.8047 160.828 70.7415L163.969 76.8103C163.043 77.7765 162.316 78.9244 161.899 80.2388C161.182 82.5002 161.386 84.9052 162.475 87.0135C163.564 89.1219 165.412 90.6812 167.677 91.3987C168.565 91.6799 169.474 91.8215 170.381 91.8215C170.817 91.8215 171.251 91.7775 171.683 91.7124L174.835 97.7946L50.3867 162.387Z" fill="#317BD6"/>
</svg>
