<svg width="192" height="192" viewBox="0 0 192 192" fill="none" xmlns="http://www.w3.org/2000/svg">
<path d="M180.274 35.1386C179.73 34.5034 178.934 34.138 178.096 34.138H42.6807L37.1591 15.6331C36.7936 14.4162 35.6763 13.584 34.4078 13.584H13.2301C11.644 13.584 10.3602 14.8678 10.3602 16.4539C10.3602 18.0399 11.644 19.3237 13.2301 19.3237H32.2688L67.1549 136.231C67.1588 136.244 67.1702 136.256 67.1741 136.269L71.5076 151.009C68.7716 153.727 67.0765 157.491 67.0765 161.641C67.0765 169.925 73.813 176.665 82.0917 176.665C90.1043 176.665 96.6496 170.336 97.0532 162.41H134.666C134.664 162.515 134.65 162.618 134.65 162.725C134.65 171.002 141.383 177.737 149.658 177.737C157.933 177.737 164.667 171.002 164.667 162.725C164.667 154.449 157.933 147.714 149.658 147.714C143.537 147.714 138.27 151.403 135.938 156.67H96.2344C95.4997 154.575 94.3154 152.648 92.6987 151.032C89.8652 148.198 86.0999 146.635 82.0974 146.635C82.0955 146.635 82.0936 146.635 82.0936 146.635C80.1248 146.635 78.2479 147.025 76.5241 147.718L73.7499 138.28H163.047C164.465 138.28 165.67 137.245 165.882 135.844L180.934 37.4403C181.06 36.6137 180.819 35.7738 180.274 35.1386ZM149.658 153.456C154.768 153.456 158.928 157.615 158.928 162.727C158.928 167.839 154.768 171.999 149.658 171.999C144.548 171.999 140.39 167.839 140.39 162.727C140.39 157.615 144.548 153.456 149.658 153.456ZM82.0936 152.377C84.5636 152.377 86.8882 153.341 88.6369 155.092C90.3875 156.842 91.3499 159.171 91.3499 161.644C91.3499 166.764 87.1962 170.929 82.0897 170.929C76.9756 170.929 72.8143 166.764 72.8143 161.644C72.8162 156.534 76.9776 152.377 82.0936 152.377ZM160.581 132.542H72.0605L66.6345 114.083C66.5657 113.85 66.4623 113.637 66.3437 113.436L44.3931 39.8777H174.754L160.581 132.542Z" fill="#317BD6"/>
</svg>
