<svg width="192" height="192" viewBox="0 0 192 192" fill="none" xmlns="http://www.w3.org/2000/svg">
<path d="M167.124 87.9232C168.059 86.6433 167.78 84.8486 166.5 83.9131L136.856 62.2436L136.732 62.1499C135.184 59.4905 134.706 57.1085 135.523 55.995C136.28 54.9599 138.515 54.6519 141.305 55.1837C141.595 55.3138 141.915 55.3961 142.252 55.421C146.069 55.708 149.12 54.5734 150.85 52.222C152.899 49.423 152.736 45.4855 150.394 41.1348C148.407 37.446 144.986 33.7133 140.761 30.6253C134.507 26.0527 127.55 23.6994 122.595 24.4666C120.23 24.8358 118.338 25.9092 117.137 27.5584C115.665 29.5558 115.334 32.2401 116.165 35.2056C116.132 35.7853 116.277 36.367 116.589 36.874C118.344 39.7151 118.924 42.3076 118.061 43.4842C117.303 44.5212 115.076 44.8235 112.309 44.2955L82.1815 22.274C81.5674 21.8244 80.8002 21.635 80.0463 21.7555C79.2944 21.8722 78.6191 22.2836 78.1714 22.8977L55.794 53.5192C55.5625 53.8368 55.398 54.1965 55.3119 54.5792C54.0664 60.0797 55.1225 64.5319 58.22 66.7971C61.3233 69.0548 65.8501 68.7104 70.7059 65.873C70.7097 65.8711 70.7135 65.8711 70.7174 65.8692C72.2479 65.2876 73.5394 65.2168 74.1784 65.6913C75.0432 66.3227 75.3091 68.2895 74.8557 70.7021C74.2473 73.9469 72.4297 77.8155 69.8698 81.3149C65.7238 86.9915 61.0172 89.9761 58.1913 90.4162C57.6116 90.5061 56.8138 90.5348 56.3068 90.1636C55.6907 89.7121 55.3693 88.5986 55.4095 87.0776C56.6301 81.5559 55.5912 77.2664 52.4726 74.9839C49.2526 72.6421 44.5097 73.0956 39.4606 76.2199C39.145 76.415 38.8694 76.6676 38.6513 76.968L16.5419 107.226C15.6082 108.506 15.8875 110.301 17.1656 111.236L47.7928 133.621C48.1104 133.853 48.472 134.017 48.8566 134.105C54.4394 135.355 58.7787 134.327 61.065 131.199C63.2844 128.172 63.0031 123.766 60.3208 119.013C60.2921 118.889 60.2557 118.763 60.2117 118.64C59.6703 117.167 59.6224 115.962 60.0835 115.332C61.4324 113.484 68.3526 114.263 75.709 119.637C83.0559 125.013 85.8913 131.367 84.5482 133.204C84.1216 133.784 83.1209 134.101 81.751 134.107C81.6554 134.073 81.5559 134.046 81.4564 134.023C75.9654 132.791 71.5094 133.851 69.2442 136.944C66.8813 140.195 67.3194 144.814 70.482 149.953C70.6772 150.27 70.9316 150.548 71.2339 150.766L101.488 172.873C101.999 173.246 102.59 173.426 103.179 173.426C104.063 173.426 104.936 173.019 105.498 172.25L127.369 142.334C130.026 140.792 132.406 140.316 133.512 141.127C134.448 141.812 135.372 144.68 134.66 148.129C134.591 148.357 134.547 148.594 134.539 148.837C134.329 153.492 136.173 155.853 137.769 157.022C143.061 160.875 152.34 156.54 159.354 146.933C166.385 137.316 167.704 127.15 162.412 123.282C160.87 122.168 158.158 121.139 154.005 122.568C153.806 122.637 153.613 122.727 153.431 122.84C150.278 124.79 147.146 124.489 146.03 123.678C144.993 122.918 144.685 120.689 145.208 117.913L167.124 87.9232ZM142.642 128.314C146.032 130.784 151.539 130.608 156.138 127.906C156.991 127.644 158.287 127.388 159.035 127.925C160.879 129.272 160.097 136.191 154.718 143.549C149.352 150.892 143.006 153.739 141.152 152.388C140.555 151.95 140.235 150.861 140.262 149.377C141.387 144.056 140.021 138.781 136.904 136.499C133.696 134.149 128.949 134.597 123.881 137.735C123.567 137.93 123.293 138.182 123.075 138.483L102.556 166.55L75.091 146.48C73.5547 143.815 73.0802 141.433 73.8799 140.333C74.6261 139.311 76.7919 138.995 79.4991 139.487C79.8454 139.671 80.2338 139.784 80.6471 139.812C84.4258 140.071 87.4621 138.934 89.1783 136.604C93.0392 131.323 88.7057 122.04 79.0954 115.007C69.4756 107.986 59.3106 106.667 55.4477 111.95C53.9631 113.982 53.6435 116.708 54.5198 119.704C54.5198 120.228 54.6671 120.751 54.9484 121.206C56.7047 124.051 57.2902 126.645 56.4331 127.812C55.6754 128.848 53.4484 129.15 50.6799 128.626L22.869 108.295L42.9408 80.8212C45.5945 79.2849 47.9746 78.8104 49.0881 79.6197C50.1576 80.4022 50.4465 82.746 49.8457 85.6369C49.7596 85.8856 49.7061 86.1477 49.6908 86.4156C49.4153 91.1872 51.2902 93.6036 52.9127 94.7937C54.5734 96.0086 56.7028 96.4582 59.0714 96.087C64.0248 95.3179 69.9387 90.9538 74.5037 84.7013C77.5955 80.4749 79.7249 75.8812 80.4979 71.762C81.4105 66.9062 80.3678 63.1046 77.5802 61.0689C75.4488 59.4905 72.5292 59.2188 69.3035 60.2825C68.9208 60.338 68.5458 60.47 68.2033 60.6824C65.366 62.4349 62.7736 63.0108 61.6046 62.1614C60.5676 61.4018 60.2634 59.1767 60.7952 56.4082L81.1139 28.603L109.424 49.2948C109.74 49.5263 110.102 49.6908 110.484 49.7769C116.063 51.0416 120.408 50.0065 122.696 46.8726C124.895 43.8726 124.65 39.5315 122.052 34.8402C122.021 34.6661 121.975 34.492 121.914 34.3217C121.355 32.8141 121.302 31.5896 121.77 30.9506C122.142 30.4416 122.907 30.2293 123.485 30.1393C126.311 29.7012 131.7 31.1113 137.381 35.2611C140.876 37.8153 143.78 40.9511 145.345 43.8592C146.511 46.0193 146.855 47.9727 146.229 48.8279C145.778 49.4421 144.66 49.7559 143.224 49.7272C143.183 49.7157 143.139 49.7061 143.099 49.6966C137.509 48.451 133.175 49.488 130.895 52.6104C128.541 55.8208 128.991 60.5657 132.131 65.6281C132.32 65.9343 132.565 66.2002 132.854 66.4164L160.801 86.8556L140.203 115.03C139.969 115.348 139.805 115.711 139.719 116.098C138.471 121.681 139.508 126.018 142.642 128.314Z" fill="#317BD6"/>
</svg>
