<svg width="192" height="192" viewBox="0 0 192 192" fill="none" xmlns="http://www.w3.org/2000/svg">
<path d="M164.16 30.7197H27.84C27.0761 30.7197 26.3436 31.0232 25.8035 31.5633C25.2634 32.1034 24.96 32.8359 24.96 33.5997V156.48C24.96 157.244 25.2634 157.976 25.8035 158.516C26.3436 159.056 27.0761 159.36 27.84 159.36H164.16C164.924 159.36 165.656 159.056 166.196 158.516C166.737 157.976 167.04 157.244 167.04 156.48V33.5997C167.04 32.8359 166.737 32.1034 166.196 31.5633C165.656 31.0232 164.924 30.7197 164.16 30.7197ZM161.28 36.4797V65.2797H30.72V36.4797H161.28ZM30.72 153.6V71.0397H161.28V153.6H30.72Z" fill="white"/>
<path d="M41.28 53.76H52.8C53.5638 53.76 54.2964 53.4566 54.8365 52.9165C55.3766 52.3764 55.68 51.6438 55.68 50.88C55.68 50.1162 55.3766 49.3836 54.8365 48.8435C54.2964 48.3034 53.5638 48 52.8 48H41.28C40.5162 48 39.7837 48.3034 39.2436 48.8435C38.7035 49.3836 38.4 50.1162 38.4 50.88C38.4 51.6438 38.7035 52.3764 39.2436 52.9165C39.7837 53.4566 40.5162 53.76 41.28 53.76Z" fill="white"/>
<path d="M67.1999 53.76H78.7199C79.4838 53.76 80.2163 53.4566 80.7564 52.9165C81.2965 52.3764 81.5999 51.6438 81.5999 50.88C81.5999 50.1162 81.2965 49.3836 80.7564 48.8435C80.2163 48.3034 79.4838 48 78.7199 48H67.1999C66.4361 48 65.7036 48.3034 65.1635 48.8435C64.6234 49.3836 64.3199 50.1162 64.3199 50.88C64.3199 51.6438 64.6234 52.3764 65.1635 52.9165C65.7036 53.4566 66.4361 53.76 67.1999 53.76Z" fill="white"/>
<path d="M119.75 108.48L85.1903 84.0388C84.7585 83.7313 84.2502 83.549 83.7214 83.5119C83.1925 83.4749 82.6638 83.5845 82.1932 83.8286C81.7227 84.0728 81.3287 84.4422 81.0547 84.8959C80.7806 85.3497 80.6371 85.8703 80.6399 86.4004V132.48C80.6395 132.996 80.7774 133.502 81.0391 133.945C81.3008 134.389 81.6767 134.755 82.1278 135.004C82.5788 135.253 83.0885 135.376 83.6035 135.361C84.1185 135.346 84.6201 135.194 85.0559 134.919L119.616 113.28C120.02 113.029 120.355 112.682 120.591 112.269C120.828 111.857 120.959 111.392 120.972 110.917C120.985 110.441 120.881 109.97 120.668 109.545C120.454 109.12 120.139 108.754 119.75 108.48ZM86.3999 127.277V91.9684L112.877 110.688L86.3999 127.277Z" fill="white"/>
</svg>
